Coordinates
version=1
nRows=40
nColumns=38
inDegrees=no

Units are S.I. units (second, meters, Newtons, ...)
If the header above contains a line with 'inDegrees', this indicates whether rotational values are in degrees (yes) or radians (no).

endheader
time	pelvis_tilt	pelvis_list	pelvis_rotation	pelvis_tx	pelvis_ty	pelvis_tz	hip_flexion_r	hip_adduction_r	hip_rotation_r	knee_angle_r	ankle_angle_r	subtalar_angle_r	mtp_angle_r	hip_flexion_l	hip_adduction_l	hip_rotation_l	knee_angle_l	ankle_angle_l	subtalar_angle_l	mtp_angle_l	lumbar_extension	lumbar_bending	lumbar_rotation	arm_flex_r	arm_add_r	arm_rot_r	elbow_flex_r	pro_sup_r	wrist_flex_r	wrist_dev_r	arm_flex_l	arm_add_l	arm_rot_l	elbow_flex_l	pro_sup_l	wrist_flex_l	wrist_dev_l
0	-3.00618	1.37116	-1.71844	0.612798	-0.283419	1.06413	0.233371	-0.00343951	0.0893147	0.99459	-0.0902665	0	0	-0.2379	0.0841398	-0.240918	0.287271	-0.16222	0	0	-0.434778	0.00853511	-0.0532324	-0.204303	-0.159306	-0.256419	0.497383	0.432835	0	0	0.266389	-0.718074	1.10169	0.753374	0.870484	0	0
0.01	-3.00229	1.3799	-1.72041	0.612487	-0.275406	1.06288	0.25739	-0.00454183	0.0840214	0.97155	-0.0865606	0	0	-0.237082	0.0841237	-0.236517	0.286868	-0.157409	0	0	-0.423389	0.0088282	-0.0472454	-0.205939	-0.153302	-0.278746	0.496626	0.450175	0	0	0.283476	-0.72075	1.0786	0.764392	0.898673	0	0
0.02	-3.00376	1.38543	-1.71699	0.612085	-0.267166	1.06189	0.275514	-0.00636679	0.0753995	0.943922	-0.0824166	0	0	-0.240641	0.0833055	-0.233449	0.284205	-0.154236	0	0	-0.417218	0.0106496	-0.0441326	-0.204124	-0.141468	-0.327507	0.495671	0.498008	0	0	0.294339	-0.723856	1.04387	0.778868	0.929183	0	0
0.03	-3.00523	1.39095	-1.7152	0.611871	-0.258475	1.06086	0.29248	-0.00789394	0.0673693	0.915425	-0.0808365	0	0	-0.245024	0.0826931	-0.23359	0.282233	-0.153057	0	0	-0.409867	0.0118034	-0.0424018	-0.205607	-0.142469	-0.325132	0.497797	0.494788	0	0	0.314282	-0.731242	1.04474	0.792876	0.928364	0	0
0.04	-3.00413	1.39609	-1.71556	0.611619	-0.249854	1.05975	0.308139	-0.0105604	0.0568653	0.883975	-0.0793939	0	0	-0.249371	0.0824556	-0.233395	0.280055	-0.150901	0	0	-0.403832	0.0126825	-0.0400964	-0.207394	-0.143186	-0.323156	0.500163	0.491336	0	0	0.333678	-0.738523	1.04238	0.808831	0.930005	0	0
0.05	-3.00233	1.40042	-1.71641	0.611383	-0.241202	1.05861	0.322153	-0.0135936	0.0441988	0.851041	-0.0784445	0	0	-0.254616	0.0825928	-0.232134	0.278044	-0.147727	0	0	-0.399308	0.0133782	-0.0376773	-0.2094	-0.143924	-0.320924	0.503323	0.486854	0	0	0.351235	-0.745309	1.03536	0.82568	0.936334	0	0
0.06	-3.00093	1.40419	-1.71679	0.611159	-0.232472	1.05743	0.334941	-0.0166923	0.029085	0.817071	-0.0780911	0	0	-0.260804	0.0829466	-0.229835	0.275646	-0.143646	0	0	-0.395775	0.0141759	-0.0352656	-0.21169	-0.144814	-0.318477	0.507201	0.481449	0	0	0.366598	-0.751017	1.02334	0.842565	0.946011	0	0
0.07	-2.99977	1.40784	-1.71664	0.610927	-0.223639	1.05618	0.34712	-0.0197485	0.0116773	0.782853	-0.0782296	0	0	-0.267239	0.0831829	-0.226868	0.273177	-0.139421	0	0	-0.392451	0.0151918	-0.0331176	-0.214078	-0.145613	-0.316653	0.511226	0.475848	0	0	0.380789	-0.755741	1.01035	0.858637	0.957262	0	0
0.08	-3.00203	1.41098	-1.71205	0.610534	-0.214746	1.05499	0.357275	-0.0233624	-0.0106257	0.746231	-0.0820847	0	0	-0.274748	0.0829607	-0.220428	0.268938	-0.133586	0	0	-0.389738	0.0173074	-0.0365146	-0.213401	-0.145723	-0.317335	0.513739	0.475508	0	0	0.348968	-0.747049	0.890926	0.874211	1.0535	0	0
0.09	-2.99865	1.41539	-1.71415	0.610466	-0.205575	1.05358	0.369529	-0.0260585	-0.028571	0.716215	-0.0821089	0	0	-0.280234	0.0828048	-0.219149	0.268043	-0.131316	0	0	-0.383395	0.0177861	-0.037291	-0.213976	-0.146901	-0.313811	0.514443	0.471848	0	0	0.363115	-0.752861	0.891345	0.887582	1.05317	0	0
0.1	-2.99799	1.41883	-1.71247	0.610294	-0.196406	1.05224	0.379329	-0.0293545	-0.0501809	0.684835	-0.0837024	0	0	-0.286964	0.0820885	-0.216531	0.26647	-0.128055	0	0	-0.378484	0.0189782	-0.0388476	-0.214143	-0.148203	-0.309589	0.514402	0.468677	0	0	0.376049	-0.758314	0.890025	0.90141	1.0559	0	0
0.11	-2.99935	1.42141	-1.70791	0.610073	-0.187156	1.05099	0.386897	-0.0328186	-0.0736523	0.654456	-0.0865156	0	0	-0.294989	0.0808796	-0.213439	0.264638	-0.124602	0	0	-0.374793	0.0206714	-0.0410943	-0.213725	-0.149621	-0.304857	0.513544	0.465855	0	0	0.387665	-0.763108	0.887248	0.914925	1.06181	0	0
0.12	-3.00422	1.42344	-1.69802	0.609786	-0.177737	1.0498	0.391808	-0.0365775	-0.101398	0.623879	-0.0914217	0	0	-0.304108	0.0785732	-0.208543	0.262251	-0.120372	0	0	-0.371819	0.0231999	-0.0450926	-0.212438	-0.15126	-0.298032	0.510995	0.461946	0	0	0.396215	-0.767122	0.879519	0.928246	1.07421	0	0
0.13	-3.00726	1.42619	-1.69016	0.609697	-0.168171	1.04849	0.39736	-0.0395638	-0.12443	0.599	-0.0928407	0	0	-0.312397	0.0760638	-0.204264	0.260346	-0.117478	0	0	-0.367459	0.0255723	-0.0492152	-0.211387	-0.152369	-0.29266	0.508376	0.458503	0	0	0.403596	-0.769819	0.871843	0.938878	1.08417	0	0
0.14	-3.01584	1.42807	-1.67465	0.60942	-0.158576	1.04735	0.399496	-0.0426662	-0.151847	0.571835	-0.0933572	0	0	-0.322341	0.0725613	-0.195106	0.256002	-0.113536	0	0	-0.36376	0.0291245	-0.0591524	-0.204779	-0.150475	-0.298065	0.499699	0.474514	0	0	0.383207	-0.764298	0.804919	0.949885	1.14043	0	0
0.15	-3.02283	1.4298	-1.66165	0.609359	-0.148904	1.04615	0.401486	-0.0442935	-0.171523	0.550589	-0.0864804	0	0	-0.332056	0.0688536	-0.190503	0.253746	-0.111085	0	0	-0.360511	0.0322288	-0.0661922	-0.206104	-0.163417	-0.244146	0.500477	0.421278	0	0	0.383945	-0.766096	0.78898	0.9601	1.15679	0	0
0.16	-3.02522	1.43343	-1.65413	0.609475	-0.13916	1.04471	0.406022	-0.0450172	-0.183076	0.535491	-0.0830656	0	0	-0.338397	0.0651555	-0.189783	0.254268	-0.110091	0	0	-0.356928	0.0350538	-0.0659626	-0.204481	-0.152245	-0.289201	0.497428	0.466052	0	0	0.404618	-0.769822	0.812437	0.967605	1.14529	0	0
0.17	-3.03401	1.43582	-1.63915	0.609492	-0.129343	1.04345	0.407348	-0.0448216	-0.193888	0.520771	-0.0781791	0	0	-0.34657	0.0606649	-0.186946	0.253634	-0.108354	0	0	-0.354243	0.0389293	-0.0696691	-0.204008	-0.152805	-0.286126	0.495942	0.463025	0	0	0.414003	-0.772172	0.816497	0.976065	1.14938	0	0
0.18	-3.0442	1.43788	-1.62272	0.60952	-0.119425	1.04227	0.407365	-0.0441235	-0.201159	0.509193	-0.0744731	0	0	-0.355106	0.056145	-0.184218	0.252992	-0.106743	0	0	-0.352138	0.0431561	-0.0734684	-0.203448	-0.15342	-0.283173	0.494551	0.459913	0	0	0.422057	-0.774118	0.819976	0.983873	1.15427	0	0
0.19	-3.05401	1.4397	-1.60665	0.609566	-0.109425	1.04116	0.406177	-0.0431493	-0.204543	0.500951	-0.0724682	0	0	-0.363783	0.0518164	-0.181479	0.252658	-0.105427	0	0	-0.350501	0.0475326	-0.0772202	-0.20313	-0.154109	-0.280513	0.493639	0.45674	0	0	0.428683	-0.775407	0.822579	0.990804	1.15946	0	0
0.2	-3.0667	1.4404	-1.58765	0.609674	-0.0993691	1.04021	0.402252	-0.0415033	-0.205764	0.493844	-0.0724734	0	0	-0.373923	0.0473364	-0.177394	0.250936	-0.103902	0	0	-0.350268	0.0524193	-0.0819909	-0.202222	-0.153926	-0.281361	0.493023	0.457064	0	0	0.424029	-0.773372	0.802776	0.99798	1.18491	0	0
0.21	-3.07333	1.44357	-1.5759	0.609982	-0.089018	1.03903	0.401323	-0.0397901	-0.202262	0.49369	-0.0734263	0	0	-0.380536	0.0434135	-0.177357	0.252711	-0.103846	0	0	-0.347227	0.0563049	-0.0848778	-0.203142	-0.154673	-0.279504	0.493185	0.453627	0	0	0.426768	-0.773942	0.804538	1.00325	1.1863	0	0
0.22	-3.08043	1.44667	-1.56388	0.610326	-0.0785791	1.03783	0.399644	-0.0375651	-0.19701	0.497431	-0.0751261	0	0	-0.386939	0.0394103	-0.177748	0.254603	-0.103881	0	0	-0.3442	0.0603121	-0.0878668	-0.20458	-0.155412	-0.278225	0.494109	0.449971	0	0	0.427142	-0.774816	0.804904	1.00883	1.18785	0	0
0.23	-3.0857	1.45001	-1.55364	0.610726	-0.0679734	1.03659	0.397522	-0.0350995	-0.18987	0.50491	-0.0774691	0	0	-0.392495	0.0352618	-0.179054	0.257652	-0.104112	0	0	-0.340849	0.0642663	-0.091342	-0.206604	-0.15635	-0.276572	0.495909	0.445595	0	0	0.425094	-0.775778	0.803881	1.01448	1.19005	0	0
0.24	-3.09001	1.45375	-1.54409	0.611164	-0.0571548	1.03531	0.394705	-0.0322601	-0.180679	0.514577	-0.0806345	0	0	-0.396791	0.0306135	-0.181065	0.262589	-0.104532	0	0	-0.336822	0.0682723	-0.0955392	-0.209295	-0.15755	-0.274263	0.498231	0.441055	0	0	0.420285	-0.776717	0.801105	1.01984	1.19234	0	0
0.25	-3.09524	1.45774	-1.53328	0.61165	-0.0461237	1.03402	0.390542	-0.0286251	-0.169971	0.525404	-0.0848712	0	0	-0.400008	0.0252123	-0.182942	0.269506	-0.105127	0	0	-0.332252	0.0723979	-0.100257	-0.212514	-0.158761	-0.272126	0.500602	0.437008	0	0	0.413173	-0.777659	0.797512	1.02472	1.19549	0	0
0.26	-3.10322	1.46148	-1.51963	0.612226	-0.0348601	1.0328	0.385174	-0.0242945	-0.159395	0.536207	-0.090426	0	0	-0.402675	0.0189271	-0.184699	0.278367	-0.106091	0	0	-0.327632	0.0767504	-0.105318	-0.215974	-0.159723	-0.270896	0.502743	0.432779	0	0	0.403927	-0.778613	0.793027	1.02896	1.19836	0	0
0.27	-3.12118	1.46506	-1.49626	0.612849	-0.0235636	1.03171	0.381121	-0.0196696	-0.151628	0.546179	-0.100449	0	0	-0.403126	0.0108543	-0.188387	0.291593	-0.107502	0	0	-0.321849	0.0822349	-0.112461	-0.21591	-0.155008	-0.293021	0.501148	0.45744	0	0	0.386645	-0.778449	0.777956	1.03247	1.20683	0	0
0.28	3.13632	1.46648	-1.46538	0.613425	-0.0120665	1.03112	0.376981	-0.01652	-0.151498	0.551186	-0.106427	0	0	-0.406476	0.00235507	-0.188717	0.304533	-0.110268	0	0	-0.320175	0.0890235	-0.117133	-0.217725	-0.158032	-0.288146	0.501719	0.452195	0	0	0.375403	-0.777499	0.774017	1.03325	1.20971	0	0
0.29	3.09696	1.46642	-1.42192	0.613959	-0.000686447	1.03096	0.371913	-0.0123866	-0.154213	0.549492	-0.118809	0	0	-0.408758	-0.00775593	-0.191289	0.321359	-0.114691	0	0	-0.31888	0.0975021	-0.121978	-0.218642	-0.162481	-0.279475	0.501255	0.445202	0	0	0.36007	-0.774565	0.765125	1.0317	1.21371	0	0
0.3	3.04893	1.46542	-1.37181	0.614645	0.0107416	1.03124	0.365029	-0.00600339	-0.156441	0.546992	-0.137102	0	0	-0.410383	-0.0182421	-0.195038	0.340599	-0.120465	0	0	-0.318849	0.106827	-0.124106	-0.219284	-0.167222	-0.271467	0.500062	0.438853	0	0	0.343339	-0.769261	0.754027	1.02812	1.21792	0	0
0.31	2.99687	1.4647	-1.32051	0.615575	0.0222357	1.03178	0.358497	0.00200972	-0.156046	0.550601	-0.156194	0	0	-0.409709	-0.0280671	-0.200725	0.36346	-0.127768	0	0	-0.318615	0.11601	-0.12366	-0.219932	-0.171962	-0.264506	0.498643	0.432437	0	0	0.32392	-0.762335	0.74	1.02322	1.22211	0	0
0.32	2.94443	1.46501	-1.27159	0.616701	0.0337813	1.03246	0.354291	0.0100603	-0.151492	0.559637	-0.167078	0	0	-0.405476	-0.0365108	-0.207967	0.391141	-0.136102	0	0	-0.317325	0.124414	-0.121145	-0.221006	-0.176614	-0.25856	0.497525	0.42541	0	0	0.301664	-0.754177	0.723331	1.01741	1.22637	0	0
0.33	2.89484	1.46751	-1.22726	0.617938	0.0453245	1.03338	0.352903	0.017481	-0.140777	0.56926	-0.171729	0	0	-0.395701	-0.0435011	-0.216418	0.42398	-0.146284	0	0	-0.315217	0.131135	-0.114859	-0.214154	-0.157515	-0.351436	0.48768	0.522574	0	0	0.275646	-0.741025	0.697015	1.01011	1.24156	0	0
0.34	2.84668	1.46941	-1.18586	0.619474	0.0568575	1.03408	0.350538	0.0253301	-0.127004	0.578796	-0.172484	0	0	-0.383992	-0.0500286	-0.226039	0.462317	-0.159811	0	0	-0.311177	0.137117	-0.112457	-0.217839	-0.170945	-0.305608	0.487494	0.47566	0	0	0.250508	-0.734308	0.682663	1.00323	1.23776	0	0
0.35	2.80624	1.47	-1.15161	0.621051	0.0681841	1.03532	0.345636	0.0333238	-0.116634	0.587223	-0.170925	0	0	-0.370594	-0.0562864	-0.231861	0.50265	-0.174398	0	0	-0.310758	0.142548	-0.107026	-0.217608	-0.170841	-0.315257	0.484288	0.486971	0	0	0.230795	-0.7269	0.675585	0.995476	1.23005	0	0
0.36	2.76805	1.46893	-1.1186	0.622526	0.0792955	1.03682	0.337899	0.0410545	-0.114265	0.591943	-0.169276	0	0	-0.35592	-0.0631462	-0.233792	0.545098	-0.187915	0	0	-0.312498	0.148675	-0.102985	-0.220435	-0.178867	-0.289851	0.485714	0.460359	0	0	0.206109	-0.716479	0.65603	0.987474	1.23406	0	0
0.37	2.72837	1.46847	-1.08298	0.623898	0.0902697	1.0383	0.329814	0.0471257	-0.119635	0.592644	-0.168669	0	0	-0.337247	-0.0702778	-0.232757	0.590617	-0.205397	0	0	-0.313136	0.154704	-0.100125	-0.221746	-0.18416	-0.274965	0.485472	0.444856	0	0	0.184979	-0.708492	0.647866	0.97956	1.22684	0	0
0.38	2.69299	1.46869	-1.05057	0.625224	0.101052	1.03962	0.321048	0.0511101	-0.130392	0.590535	-0.169243	0	0	-0.315516	-0.0762789	-0.227091	0.638086	-0.222563	0	0	-0.313206	0.159893	-0.0977533	-0.223428	-0.18853	-0.262264	0.486089	0.430429	0	0	0.165734	-0.701493	0.644196	0.971938	1.21774	0	0
0.39	2.65925	1.47059	-1.01893	0.626561	0.111574	1.04085	0.313084	0.0540097	-0.142167	0.587563	-0.168693	0	0	-0.289891	-0.0807625	-0.217668	0.687327	-0.236354	0	0	-0.313775	0.16359	-0.0904479	-0.216957	-0.165341	-0.364887	0.478201	0.537579	0	0	0.15859	-0.697157	0.66243	0.963765	1.19757	0	0
